<svg width="60" height="62" viewBox="0 0 60 62" fill="none" xmlns="http://www.w3.org/2000/svg">
<path fill-rule="evenodd" clip-rule="evenodd" d="M2 23.0135V60H58V23.0135L30 2.48015L2 23.0135ZM0 22V62H60V22L30 0L0 22Z" fill="#0D150E"/>
<path fill-rule="evenodd" clip-rule="evenodd" d="M43.4353 42.2718C44.479 43.2541 45.2913 44 47 44V46C44.4781 46 43.1661 44.765 42.0894 43.7515L42.0647 43.7282C41.021 42.7459 40.2087 42 38.5 42C36.7913 42 35.979 42.7459 34.9353 43.7282L34.9106 43.7515C33.8339 44.765 32.5219 46 30 46C27.4781 46 26.166 44.765 25.0894 43.7515L25.0646 43.7282C24.021 42.7459 23.2087 42 21.5 42C19.7913 42 18.979 42.7459 17.9354 43.7282L17.9106 43.7515C16.834 44.765 15.5219 46 13 46V44C14.7087 44 15.521 43.2541 16.5646 42.2718L16.5894 42.2485C17.666 41.235 18.9781 40 21.5 40C24.0219 40 25.334 41.235 26.4106 42.2485L26.4354 42.2718C27.479 43.2541 28.2913 44 30 44C31.7087 44 32.521 43.2541 33.5647 42.2718L33.5894 42.2485C34.6661 41.235 35.9781 40 38.5 40C41.0219 40 42.3339 41.235 43.4106 42.2485C43.4188 42.2563 43.4271 42.2641 43.4353 42.2718Z" fill="#0D150E"/>
<path fill-rule="evenodd" clip-rule="evenodd" d="M43.4353 34.2718C44.479 35.2541 45.2913 36 47 36V38C44.4781 38 43.1661 36.765 42.0894 35.7515L42.0647 35.7282C41.021 34.7459 40.2087 34 38.5 34C36.7913 34 35.979 34.7459 34.9353 35.7282L34.9106 35.7515C33.8339 36.765 32.5219 38 30 38C27.4781 38 26.166 36.765 25.0894 35.7515L25.0646 35.7282C24.021 34.7459 23.2087 34 21.5 34C19.7913 34 18.979 34.7459 17.9354 35.7282L17.9106 35.7515C16.834 36.765 15.5219 38 13 38V36C14.7087 36 15.521 35.2541 16.5646 34.2718L16.5894 34.2485C17.666 33.2351 18.9781 32 21.5 32C24.0219 32 25.334 33.2351 26.4106 34.2485L26.4354 34.2718C27.479 35.2541 28.2913 36 30 36C31.7087 36 32.521 35.2541 33.5647 34.2718L33.5894 34.2485C34.6661 33.2351 35.9781 32 38.5 32C41.0219 32 42.3339 33.2351 43.4106 34.2485C43.4188 34.2563 43.4271 34.2641 43.4353 34.2718Z" fill="#0D150E"/>
</svg>
