<svg width="60" height="62" viewBox="0 0 60 62" fill="none" xmlns="http://www.w3.org/2000/svg">
<path fill-rule="evenodd" clip-rule="evenodd" d="M2 23.0135V60H58V23.0135L30 2.48014L2 23.0135ZM0 22V62H60V22L30 0L0 22Z" fill="#0D150E"/>
<path fill-rule="evenodd" clip-rule="evenodd" d="M18.6865 32.9277C18.4502 31.0539 18.8244 28.7609 20.2188 25.5967L22.049 26.4032C20.739 29.3758 20.4958 31.2898 20.6708 32.6774C20.8433 34.0449 21.4283 35.0208 22.1298 36.1911C22.1424 36.2121 22.155 36.2332 22.1677 36.2543C22.8781 37.4398 23.6811 38.8083 23.8495 40.7642C24.0167 42.707 23.5527 45.1057 22.0438 48.4148L20.224 47.585C21.6543 44.4485 21.9837 42.4087 21.8569 40.9357C21.7312 39.4758 21.1526 38.4513 20.4522 37.2824C20.4233 37.2343 20.3942 37.1858 20.365 37.1371C19.6909 36.0149 18.9125 34.7192 18.6865 32.9277Z" fill="#0D150E"/>
<path fill-rule="evenodd" clip-rule="evenodd" d="M27.1865 32.9277C26.9502 31.0539 27.3244 28.7609 28.7188 25.5967L30.549 26.4032C29.239 29.3758 28.9958 31.2898 29.1708 32.6774C29.3433 34.0449 29.9283 35.0208 30.6298 36.1911C30.6424 36.2121 30.655 36.2332 30.6677 36.2543C31.3781 37.4398 32.1811 38.8083 32.3495 40.7642C32.5167 42.707 32.0527 45.1057 30.5438 48.4148L28.724 47.585C30.1543 44.4485 30.4837 42.4087 30.3569 40.9357C30.2312 39.4758 29.6526 38.4513 28.9522 37.2824C28.9233 37.2343 28.8942 37.1858 28.865 37.1371C28.1909 36.0149 27.4125 34.7192 27.1865 32.9277Z" fill="#0D150E"/>
<path fill-rule="evenodd" clip-rule="evenodd" d="M35.206 32.9527C34.9157 31.0419 35.3411 28.7222 36.9279 25.5522L38.7164 26.4474C37.2313 29.4143 36.9781 31.3017 37.1833 32.6522C37.3866 33.9898 38.05 34.9504 38.8609 36.1247C38.8782 36.1497 38.8955 36.1749 38.913 36.2002C39.7278 37.3805 40.6623 38.7664 40.8471 40.7574C41.0309 42.7375 40.4658 45.1596 38.705 48.4695L36.9393 47.5302C38.6075 44.3944 38.9889 42.3779 38.8557 40.9422C38.7235 39.5175 38.0775 38.5104 37.267 37.3363C37.2287 37.2808 37.1899 37.2248 37.1508 37.1683C36.3827 36.0594 35.4801 34.7561 35.206 32.9527Z" fill="#0D150E"/>
</svg>
