<svg width="318" height="33" viewBox="0 0 318 33" fill="none" xmlns="http://www.w3.org/2000/svg">
<path d="M113.859 1.15696C114.399 1.15696 114.759 1.15696 115.119 1.15696C115.419 1.15696 115.699 1.19697 116.059 1.21697C116.059 11.4186 116.059 21.5402 116.059 31.7618C115.279 31.9218 114.519 31.7418 113.779 31.8618C112.278 32.1019 111.498 31.4418 110.738 30.1616C105.557 21.4802 100.276 12.8388 95.0155 4.19744C94.7755 3.81738 94.6755 3.19728 93.8754 3.3573C93.8754 12.7988 93.8754 22.2403 93.8754 31.7418C93.1152 31.7418 92.4751 31.7418 91.835 31.7418C91.815 31.7218 91.775 31.7018 91.755 31.6818C91.735 31.6618 91.715 31.6218 91.695 31.6018C91.675 31.3617 91.635 31.1417 91.635 30.9017C91.635 21.1201 91.635 11.3186 91.655 1.53702C91.655 1.437 91.715 1.35699 91.775 1.13696C93.0352 1.13696 94.3354 1.09695 95.6156 1.17696C95.8757 1.19696 96.1757 1.59703 96.3558 1.87707C98.016 4.5775 99.6563 7.27793 101.297 9.97836C105.077 16.1993 108.858 22.4403 112.638 28.6613C112.778 28.8814 112.878 29.1414 113.058 29.3414C113.218 29.5015 113.458 29.5815 113.839 29.8215C113.859 20.2 113.859 10.7585 113.859 1.15696Z" fill="white"/>
<path d="M212.654 32.6035C209.394 32.4635 206.393 31.6834 203.673 29.8631C201.112 28.1428 199.352 25.8024 198.332 22.962C196.772 18.5813 196.752 14.1406 198.452 9.79991C200.572 4.41906 204.653 1.45859 210.334 0.718472C213.654 0.278403 216.895 0.638462 219.975 2.1387C222.796 3.51892 224.996 5.57924 226.316 8.39969C229.017 14.2006 228.937 20.0015 225.776 25.6024C223.756 29.183 220.495 31.1433 216.595 32.0835C215.315 32.3635 213.974 32.4235 212.654 32.6035ZM212.674 30.3432C213.734 30.2832 214.815 30.3232 215.855 30.1431C219.135 29.6031 221.616 27.8028 223.456 25.1023C225.056 22.762 225.776 20.1216 225.876 17.3011C225.996 14.1006 225.436 11.0801 223.736 8.31968C221.916 5.37921 219.375 3.37889 215.895 2.85881C214.454 2.63877 212.974 2.67878 211.514 2.69879C207.413 2.69878 204.233 4.55908 202.053 7.91961C198.832 12.9004 198.732 18.2212 201.152 23.5421C202.473 26.4626 204.713 28.5629 207.773 29.7031C209.354 30.2832 211.014 30.3232 212.674 30.3432Z" fill="white"/>
<path d="M288.326 9.87711C287.466 9.87711 286.805 9.87711 286.085 9.87711C285.985 9.37703 285.905 8.89696 285.805 8.41688C285.125 5.05635 282.685 2.91601 279.264 2.73598C277.904 2.67597 276.524 2.65596 275.164 2.75598C273.383 2.896 271.823 3.57611 270.563 4.89632C268.603 6.95664 268.363 11.9174 272.623 14.0178C273.443 14.4178 274.383 14.6579 275.284 14.8379C277.724 15.338 280.204 15.718 282.645 16.2581C283.665 16.4982 284.665 16.9382 285.585 17.4583C287.226 18.3985 288.206 19.8787 288.666 21.699C289.006 23.0792 289.006 24.4794 288.726 25.8596C288.206 28.3 286.765 30.0403 284.545 31.1405C283.245 31.7806 281.865 32.1806 280.444 32.3207C277.664 32.6007 274.924 32.5407 272.243 31.6406C268.322 30.3404 266.462 27.3799 266.222 23.4593C266.222 23.3993 266.262 23.3393 266.302 23.1792C266.962 23.1792 267.642 23.1792 268.383 23.1792C268.443 23.4193 268.523 23.6793 268.563 23.9193C269.243 27.6799 271.903 30.0603 275.724 30.2003C277.244 30.2603 278.784 30.2804 280.324 30.1803C282.145 30.0803 283.745 29.4202 285.065 28.1C287.866 25.2596 287.005 20.4588 283.365 18.8185C282.525 18.4385 281.605 18.2184 280.684 18.0384C278.104 17.5183 275.504 17.1183 272.943 16.5182C269.823 15.7981 267.582 13.2376 267.162 10.2172C266.582 5.89648 268.563 2.63596 272.703 1.23574C276.024 0.115561 279.404 0.195569 282.705 1.35575C285.525 2.35591 287.225 4.43625 287.946 7.31671C288.126 8.11683 288.186 8.95696 288.326 9.87711Z" fill="white"/>
<path d="M22.1235 9.877C21.2834 9.877 20.6233 9.877 19.8832 9.877C19.8031 9.47693 19.7231 9.09687 19.6631 8.71681C19.143 5.29627 16.6026 2.9359 13.1821 2.73586C11.8219 2.65585 10.4417 2.65585 9.10144 2.75586C8.26131 2.81587 7.38117 3.03591 6.60105 3.37596C4.66074 4.17609 3.36053 5.61631 3.12049 7.75665C2.86045 10.077 3.56056 12.0173 5.48087 13.4576C6.54104 14.2577 7.78123 14.6177 9.08144 14.8578C11.5418 15.3179 13.9822 15.7579 16.4426 16.238C17.6228 16.478 18.743 16.9381 19.7231 17.6382C21.9235 19.2185 22.8036 21.4188 22.7236 24.0392C22.6236 27.8198 20.7233 30.3803 17.0827 31.6605C14.5823 32.5406 11.9819 32.5606 9.38148 32.3406C7.82124 32.2005 6.30099 31.8605 4.86077 31.1804C1.98031 29.8402 0.520078 27.4998 0.0800085 24.4193C0.0199991 24.0392 0.0199991 23.6392 -3.96688e-06 23.1791C0.78012 23.1791 1.44022 23.1791 2.16034 23.1791C2.28036 23.6792 2.36037 24.1393 2.48039 24.5793C3.30052 27.8399 5.80092 30.0202 9.14145 30.2202C10.8417 30.3202 12.542 30.2802 14.2223 30.2202C15.5025 30.1602 16.7026 29.7201 17.7628 29C19.8431 27.5998 20.7433 25.5995 20.3832 23.1591C20.0032 20.6787 18.4629 19.0785 16.0625 18.4584C14.1022 17.9583 12.0819 17.6782 10.1016 17.2582C8.60136 16.9381 7.06112 16.7381 5.6609 16.178C2.5604 14.9178 0.980153 12.5174 0.860135 9.13688C0.740117 6.07639 1.96031 3.67601 4.60073 2.13577C5.62089 1.53567 6.78108 1.1156 7.94126 0.875564C10.7217 0.275469 13.5021 0.355482 16.2226 1.27563C19.3831 2.3358 21.1834 4.61616 21.8635 7.81667C21.9835 8.43677 22.0235 9.09687 22.1235 9.877Z" fill="white"/>
<path d="M317.33 29.696C317.33 30.4561 317.33 31.0562 317.33 31.6163C317.27 31.6763 317.25 31.6963 317.23 31.7163C317.21 31.7363 317.19 31.7763 317.15 31.7763C317.01 31.7963 316.89 31.8363 316.75 31.8363C310.029 31.8363 303.288 31.8363 296.567 31.8363C296.447 31.8363 296.307 31.7963 296.187 31.7763C295.947 30.9962 295.927 2.1916 296.167 1.23145C303.088 1.23145 310.029 1.23145 317.05 1.23145C317.05 1.89155 317.05 2.51165 317.05 3.27177C315.81 3.37178 314.57 3.31178 313.31 3.31178C312.069 3.33178 310.849 3.31178 309.609 3.31178C308.349 3.31178 307.069 3.31178 305.808 3.31178C304.568 3.31178 303.348 3.31178 302.108 3.31178C300.848 3.31178 299.587 3.31177 298.267 3.31177C298.267 7.2524 298.267 11.093 298.267 15.0536C304.128 15.0536 309.949 15.0536 315.83 15.0536C315.83 15.7537 315.83 16.3338 315.83 17.034C314.91 17.154 313.95 17.074 313.01 17.094C312.009 17.114 311.009 17.094 310.009 17.094C309.049 17.094 308.069 17.094 307.109 17.094C306.149 17.094 305.168 17.094 304.208 17.094C303.208 17.094 302.208 17.094 301.208 17.094C300.248 17.094 299.287 17.094 298.267 17.094C298.267 21.3346 298.267 25.4753 298.267 29.716C304.668 29.696 310.949 29.696 317.33 29.696Z" fill="white"/>
<path d="M127.841 21.3409C127.521 22.2611 127.181 23.1212 126.88 24.0013C126.06 26.3217 125.26 28.6421 124.44 30.9624C124.14 31.8226 124.12 31.8226 123.26 31.8226C122.9 31.8226 122.52 31.8026 122.16 31.8026C122.1 31.8026 122.04 31.7426 121.94 31.6625C121.98 31.4625 122.02 31.2425 122.08 31.0424C125.48 21.3609 128.901 11.6594 132.301 1.97783C132.601 1.1577 132.601 1.1577 133.522 1.1377C135.062 1.1377 136.582 1.1377 138.122 1.1377C139.242 1.1377 139.242 1.13769 139.602 2.17786C142.483 10.3992 145.383 18.6005 148.264 26.8218C148.724 28.142 149.184 29.4622 149.644 30.7624C149.744 31.0424 149.824 31.3225 149.924 31.6625C149.164 31.9626 148.444 31.7426 147.644 31.8226C146.404 28.322 145.183 24.8615 143.923 21.3409C138.582 21.3409 133.281 21.3409 127.841 21.3409ZM137.602 3.35805C136.442 3.35805 135.322 3.35805 134.182 3.35805C132.321 8.61888 130.501 13.8397 128.661 19.0605C129.701 19.3006 142.303 19.2606 143.143 19.0205C141.283 13.7997 139.442 8.57888 137.602 3.35805Z" fill="white"/>
<path d="M54.3884 31.8236C53.5882 31.8236 52.9681 31.8636 52.348 31.8036C52.148 31.7836 51.928 31.5235 51.828 31.3035C51.5479 30.6234 51.3279 29.9233 51.0678 29.2432C50.2477 26.9228 49.4476 24.6024 48.6274 22.2821C48.5274 21.982 48.3874 21.662 48.2474 21.2819C47.9073 21.2819 47.5873 21.2819 47.2472 21.2819C42.5865 21.2819 37.9257 21.2819 33.265 21.2819C32.1048 21.2819 32.2648 21.2019 31.8848 22.2821C30.8646 25.1425 29.8645 27.983 28.8643 30.8434C28.5042 31.8436 28.5042 31.8436 27.4641 31.8436C27.104 31.8436 26.744 31.8436 26.2439 31.8436C26.3439 31.4635 26.4039 31.1835 26.4839 30.9034C29.8645 21.2819 33.265 11.6404 36.6455 2.01883C36.9456 1.1587 36.9456 1.15869 37.8457 1.15869C39.486 1.15869 41.1063 1.15869 42.7465 1.15869C43.0066 1.15869 43.2666 1.1987 43.6067 1.21871C47.2072 11.3803 50.7678 21.5219 54.3884 31.8236ZM38.5659 3.33904C36.7056 8.61988 34.8653 13.8407 33.025 19.0815C34.2652 19.3216 46.7472 19.2616 47.5073 19.0215C45.667 13.8007 43.8267 8.57988 41.9864 3.33905C40.8262 3.33905 39.746 3.33905 38.5659 3.33904Z" fill="white"/>
<path d="M189.79 31.766C189.15 31.766 188.51 31.766 187.73 31.766C187.73 26.7853 187.73 21.8845 187.73 17.0037C186.889 16.7837 168.547 16.7237 167.246 16.9437C167.226 18.5239 167.246 20.1442 167.246 21.7645C167.246 23.4247 167.246 25.085 167.246 26.7652C167.246 28.3855 167.246 30.0258 167.246 31.746C166.506 31.746 165.846 31.746 165.106 31.746C165.106 21.5844 165.106 11.4628 165.106 1.2412C165.786 1.2412 166.466 1.2412 167.246 1.2412C167.246 5.70191 167.246 10.1026 167.246 14.4833C168.066 14.7033 185.849 14.7833 187.73 14.5833C187.79 10.1626 187.71 5.72191 187.77 1.2212C188.51 1.2212 189.17 1.2212 189.81 1.2212C189.99 2.04133 190.01 30.8659 189.79 31.766Z" fill="white"/>
<path d="M60.51 1.16348C60.51 1.72357 60.51 2.12364 60.51 2.5237C60.51 8.22461 60.51 13.9055 60.51 19.6064C60.51 21.4467 60.71 23.267 61.4501 24.9673C62.9104 28.3878 65.5708 30.0681 69.2314 30.2281C70.5916 30.2881 71.9718 30.3281 73.312 30.1481C76.9126 29.648 79.193 27.4877 80.2331 24.0871C80.5932 22.927 80.7932 21.6867 80.8132 20.4666C80.8732 14.4656 80.8532 8.48465 80.8532 2.4837C80.8532 2.08363 80.8532 1.70357 80.8532 1.2235C81.6133 1.2235 82.2534 1.2235 82.9736 1.2235C82.9936 1.54355 83.0336 1.82359 83.0336 2.12364C83.0336 7.98457 83.0336 13.8455 83.0336 19.7064C83.0336 21.3067 82.8935 22.8869 82.4735 24.4472C81.4133 28.3278 78.9929 30.9082 75.0723 31.9284C71.8118 32.7685 68.5313 32.7285 65.3308 31.6283C62.1102 30.5281 60.0899 28.2078 59.0298 25.0273C58.5297 23.527 58.2896 21.9868 58.2696 20.4065C58.2296 14.1856 58.2496 7.96456 58.2496 1.72357C58.2496 1.62356 58.2696 1.52354 58.2896 1.36351C58.9497 0.943445 59.6499 1.22349 60.51 1.16348Z" fill="white"/>
<path d="M234.837 1.22119C235.577 1.22119 236.217 1.22119 236.977 1.22119C236.997 1.66126 237.037 2.04132 237.037 2.44139C237.037 8.1623 237.037 13.9032 237.037 19.6241C237.037 21.4644 237.237 23.2847 237.977 24.985C239.438 28.4055 242.098 30.0858 245.759 30.2458C247.079 30.3058 248.439 30.3458 249.759 30.1858C253.36 29.7057 255.66 27.5854 256.76 24.1848C257.14 23.0047 257.341 21.7044 257.361 20.4642C257.421 14.4633 257.401 8.48235 257.401 2.48139C257.401 2.08133 257.401 1.70127 257.401 1.2412C258.161 1.2412 258.801 1.2412 259.521 1.2412C259.541 1.56125 259.581 1.8613 259.581 2.14134C259.581 8.00227 259.581 13.8632 259.581 19.7241C259.581 21.3244 259.441 22.9046 259.021 24.4649C257.961 28.3455 255.54 30.9259 251.62 31.9461C248.359 32.7862 245.079 32.7462 241.878 31.646C238.658 30.5459 236.637 28.2255 235.577 25.045C235.077 23.5047 234.837 21.9245 234.817 20.3242C234.777 14.2033 234.797 8.08228 234.797 1.94131C234.777 1.74128 234.817 1.54124 234.837 1.22119Z" fill="white"/>
</svg>
