<svg width="60" height="62" viewBox="0 0 60 62" fill="none" xmlns="http://www.w3.org/2000/svg">
<path fill-rule="evenodd" clip-rule="evenodd" d="M2 23.0135V60.0001H58V23.0135L30 2.48015L2 23.0135ZM0 22V62.0001H60V22L30 0L0 22Z" fill="#0D150E"/>
<path fill-rule="evenodd" clip-rule="evenodd" d="M16.5 31C14.2908 31 12.5 32.7908 12.5 35H10V37H16.2472L14.0248 46.7784L15.9751 47.2216L18.2982 37H41.7018L44.0249 47.2216L45.9752 46.7784L43.7528 37H50V35H23.5C23.5 32.7908 21.7092 31 19.5 31H16.5ZM21.5 35C21.5 33.8954 20.6046 33 19.5 33H16.5C15.3955 33 14.5 33.8954 14.5 35H21.5Z" fill="#0D150E"/>
</svg>
